<svg height="512" viewBox="0 0 128 128" width="512" xmlns="http://www.w3.org/2000/svg"><g><path d="m98.6 26.965-34.124-9.649a1.749 1.749 0 0 0 -.952 0l-34.124 9.649a1.75 1.75 0 0 0 -1.274 1.683v33.908a49.035 49.035 0 0 0 27.309 44.13l7.783 3.88a1.75 1.75 0 0 0 1.562 0l7.783-3.88a49.035 49.035 0 0 0 27.309-44.13v-33.908a1.75 1.75 0 0 0 -1.272-1.683zm-2.227 35.591a45.555 45.555 0 0 1 -25.371 41l-7 3.491-7-3.491a45.555 45.555 0 0 1 -25.371-41v-32.583l32.369-9.155 32.373 9.155z"/><path d="m52.148 47.53v4.283h-.763a4.474 4.474 0 0 0 -4.47 4.469v17.3a4.475 4.475 0 0 0 4.47 4.47h25.23a4.475 4.475 0 0 0 4.47-4.47v-17.3a4.474 4.474 0 0 0 -4.47-4.469h-.763v-4.283a11.852 11.852 0 0 0 -23.7 0zm25.437 8.752v17.3a.971.971 0 0 1 -.97.97h-25.23a.971.971 0 0 1 -.97-.97v-17.3a.97.97 0 0 1 .97-.969h25.23a.97.97 0 0 1 .97.969zm-5.233-8.752v4.283h-16.7v-4.283a8.352 8.352 0 0 1 16.7 0z"/></g></svg>