<svg id="Capa_1" enable-background="new 0 0 511.966 511.966" height="512" viewBox="0 0 511.966 511.966" width="512" xmlns="http://www.w3.org/2000/svg"><g><path d="m60.233 256.638v209.582c60.267 29.643 128.525 45.925 195.802 45.745 67.345.047 135.617-16.138 195.698-45.762v-209.583c-9.18-4.388-21.693-10.101-30.125-13.448v-77.547c0-91.326-74.299-165.625-165.625-165.625s-165.625 74.299-165.625 165.625v77.577c-8.431 3.344-20.944 9.053-30.125 13.436zm331.375-24.355c-9.97-3.215-20.064-6.074-30.25-8.577v-58.081c0-58.104-47.271-105.375-105.375-105.375s-105.375 47.271-105.375 105.375v58.112c-10.185 2.504-20.279 5.364-30.25 8.579v-66.691c0-74.784 60.841-135.625 135.625-135.625s135.625 60.841 135.625 135.625zm-211-66.658c0-41.562 33.813-75.375 75.375-75.375s75.375 33.813 75.375 75.375v51.794c-24.869-4.324-50.104-6.543-75.29-6.543-.047 0-.09 0-.137 0-25.192.008-50.438 2.236-75.323 6.569zm-90.375 110.191c51.848-22.865 108.928-34.923 165.708-34.94h.128c56.797 0 113.857 12.048 165.665 34.915v171.233c-51.848 22.865-108.927 34.922-165.708 34.94-.04 0-.085 0-.126 0-56.797 0-113.858-12.049-165.666-34.916v-171.232z"/><path d="m255.983 286.17c-24.882 0-45.125 20.243-45.125 45.125 0 19.612 12.58 36.333 30.092 42.541v47.834h29.999v-47.812c17.546-6.188 30.159-22.926 30.159-42.563 0-24.882-20.243-45.125-45.125-45.125zm0 30c8.34 0 15.125 6.785 15.125 15.125s-6.785 15.125-15.125 15.125-15.125-6.785-15.125-15.125 6.785-15.125 15.125-15.125z"/></g></svg>