<svg height="512" viewBox="0 0 128 128" width="512" xmlns="http://www.w3.org/2000/svg"><g><g><path d="m27.563 43.754h72.875a9 9 0 0 1 9 9v59.493a14 14 0 0 1 -14 14h-62.875a14 14 0 0 1 -14-14v-59.493a9 9 0 0 1 9-9z" fill="#596475"/><path d="m91.938 43.754h-10v-26a6.007 6.007 0 0 0 -6-6h-23.875a6.006 6.006 0 0 0 -6 6v26h-10v-26a16.018 16.018 0 0 1 16-16h23.875a16.019 16.019 0 0 1 16 16z" fill="#bcc2c5"/><path d="m18.563 57.875h9.063v49.25h-9.063z" fill="#464f5d"/><path d="m100.375 57.875h9.062v49.25h-9.062z" fill="#464f5d" transform="matrix(-1 0 0 -1 209.812 165)"/><circle cx="64" cy="85.001" fill="#ecf0f1" r="28.563"/><path d="m64 96.743c4.37 0 6.856-4.916 6.856-4.916l-6.856-8.38-6.856 8.38s2.486 4.916 6.856 4.916z" fill="#fdd7ad"/><path d="m64 96.743c-4.37 0-6.856-4.916-6.856-4.916v20.9a28.5 28.5 0 0 0 13.712 0v-20.9s-2.486 4.916-6.856 4.916z" fill="#fec400"/><path d="m62.25 96.463v17.046q.868.054 1.75.054t1.75-.054v-17.046a5.609 5.609 0 0 1 -3.5 0z" fill="#ff8c00"/><g fill="#fec400"><path d="m64 75.011a1.75 1.75 0 0 1 -1.75-1.75v-7.5a1.75 1.75 0 0 1 3.5 0v7.5a1.75 1.75 0 0 1 -1.75 1.75z"/><path d="m71.2 77.994a1.75 1.75 0 0 1 -1.237-2.987l5.308-5.307a1.75 1.75 0 0 1 2.475 2.475l-5.306 5.3a1.741 1.741 0 0 1 -1.24.519z"/><path d="m81.69 85.2h-7.5a1.75 1.75 0 0 1 0-3.5h7.5a1.75 1.75 0 0 1 0 3.5z"/><path d="m53.814 85.2h-7.5a1.75 1.75 0 0 1 0-3.5h7.5a1.75 1.75 0 0 1 0 3.5z"/><path d="m56.8 77.994a1.741 1.741 0 0 1 -1.237-.513l-5.306-5.3a1.75 1.75 0 0 1 2.472-2.481l5.305 5.306a1.75 1.75 0 0 1 -1.234 2.988z"/></g></g><g><path d="m100.437 42h-6.749v-24.249a1.75 1.75 0 0 0 -3.5 0v24.249h-6.5v-24.249a7.759 7.759 0 0 0 -7.75-7.751h-23.875a7.759 7.759 0 0 0 -7.75 7.75v24.25h-6.5v-24.249a14.266 14.266 0 0 1 14.25-14.251h23.875a14.23 14.23 0 0 1 11.917 6.447 1.75 1.75 0 0 0 2.925-1.922 17.722 17.722 0 0 0 -14.842-8.025h-23.875a17.77 17.77 0 0 0 -17.75 17.75v24.25h-6.75a10.762 10.762 0 0 0 -10.75 10.75v59.493a15.767 15.767 0 0 0 15.75 15.757h62.875a15.767 15.767 0 0 0 15.749-15.75v-59.496a10.762 10.762 0 0 0 -10.75-10.754zm-52.624-24.249a4.254 4.254 0 0 1 4.25-4.25h23.875a4.255 4.255 0 0 1 4.25 4.25v24.249h-32.375zm47.625 106.749h-62.875a12.263 12.263 0 0 1 -12.25-12.25v-3.372h7.312a1.75 1.75 0 0 0 1.75-1.75v-6.128a1.75 1.75 0 0 0 -3.5 0v4.375h-5.562v-45.75h5.562v16.619a1.75 1.75 0 0 0 3.5 0v-18.369a1.75 1.75 0 0 0 -1.75-1.75h-7.312v-3.371a7.258 7.258 0 0 1 7.25-7.25h72.874a7.258 7.258 0 0 1 7.25 7.25v3.371h-7.312a1.75 1.75 0 0 0 -1.75 1.75v49.25a1.75 1.75 0 0 0 1.75 1.75h7.312v3.372a12.263 12.263 0 0 1 -12.249 12.253zm12.249-19.122h-5.562v-45.753h5.562z"/><path d="m27.625 84.75a1.75 1.75 0 0 0 -1.75 1.75v4.244a1.75 1.75 0 0 0 3.5 0v-4.244a1.75 1.75 0 0 0 -1.75-1.75z"/><path d="m64 54.689a30.313 30.313 0 1 0 30.313 30.311 30.346 30.346 0 0 0 -30.313-30.311zm-4.709 37.278 4.709-5.756 4.708 5.755c-1.1 1.533-2.714 3-4.708 3.027-2-.022-3.614-1.493-4.709-3.026zm6.459 6.313a8.7 8.7 0 0 0 3.356-1.668v14.708a26.857 26.857 0 0 1 -3.356.43zm-6.856-1.668a8.7 8.7 0 0 0 3.356 1.668v13.47a26.857 26.857 0 0 1 -3.356-.43zm13.712 13.776v-18.561a2.075 2.075 0 0 0 -.4-1.108l-6.855-8.38a1.81 1.81 0 0 0 -2.71 0l-6.855 8.38a2.075 2.075 0 0 0 -.4 1.108v18.561a26.813 26.813 0 1 1 17.212 0z"/><path d="m64 64.007a1.75 1.75 0 0 0 -1.75 1.75v7.5a1.75 1.75 0 0 0 3.5 0v-7.5a1.75 1.75 0 0 0 -1.75-1.75z"/><path d="m77.746 72.176a1.75 1.75 0 0 0 -2.475-2.476l-5.305 5.306a1.749 1.749 0 1 0 2.474 2.474z"/><path d="m81.69 81.7h-7.5a1.75 1.75 0 0 0 0 3.5h7.5a1.75 1.75 0 0 0 0-3.5z"/><path d="m53.814 81.7h-7.5a1.75 1.75 0 0 0 0 3.5h7.5a1.75 1.75 0 0 0 0-3.5z"/><path d="m52.729 69.7a1.75 1.75 0 0 0 -2.475 2.475l5.306 5.3a1.749 1.749 0 0 0 2.474-2.474z"/></g></g></svg>