<svg id="Capa_1" enable-background="new 0 0 512.059 512.059" height="512" viewBox="0 0 512.059 512.059" width="512" xmlns="http://www.w3.org/2000/svg"><g><path d="m378.311 269.8h46.299c6.192 17.459 22.865 30 42.42 30 24.814 0 45-20.187 45-45s-20.186-45-45-45c-19.555 0-36.228 12.541-42.42 30h-46.299v-61.014h88.807c8.284 0 15-6.716 15-15v-76.337c17.413-6.217 29.912-22.868 29.912-42.39 0-24.813-20.186-45-45-45-24.813 0-45 20.187-45 45 0 19.587 12.583 36.282 30.088 42.45v61.277h-73.807v-8.277c0-8.284-6.716-15-15-15h-14.409v-32.638c0-51.209-41.662-92.871-92.872-92.871s-92.872 41.662-92.872 92.871v32.637h-14.409c-8.284 0-15 6.716-15 15v4.551h-46.3c-6.192-17.459-22.865-30-42.42-30-24.813 0-45 20.187-45 45s20.187 45 45 45c19.555 0 36.228-12.541 42.42-30h46.3v58.741h-88.808c-8.284 0-15 6.716-15 15v46.337c-17.413 6.217-29.912 22.868-29.912 42.39 0 24.813 20.187 45 45 45s45-20.187 45-45c0-19.587-12.584-36.282-30.088-42.45v-31.277h73.808v22.282c0 20.415 7.329 39.147 19.484 53.718h-18.292c-8.284 0-15 6.716-15 15v46.337c-17.413 6.217-29.912 22.868-29.912 42.39 0 24.813 20.187 45 45 45s45-20.187 45-45c0-19.587-12.584-36.282-30.088-42.45v-31.277l91.088.27v54.037c-17.459 6.192-30 22.865-30 42.42 0 24.813 20.187 45 45 45s45-20.187 45-45c0-19.555-12.541-36.228-30-42.42v-54.037l178.147-.27v55.962c-15.955 6.924-27.147 22.826-27.147 41.298 0 24.813 20.187 45 45 45 24.814 0 45-20.187 45-45 0-20.604-13.924-38.006-32.853-43.321v-68.939c0-8.284-6.716-15-15-15h-105.35c12.156-14.572 19.485-33.303 19.485-53.718zm88.719-30c8.272 0 15 6.729 15 15s-6.728 15-15 15c-8.271 0-15-6.729-15-15s6.728-15 15-15zm0-209.741c8.272 0 15 6.729 15 15s-6.728 15-15 15c-8.271 0-15-6.729-15-15s6.728-15 15-15zm-422 145c-8.271 0-15-6.729-15-15s6.729-15 15-15 15 6.729 15 15-6.729 15-15 15zm0 177.467c-8.271 0-15-6.729-15-15s6.729-15 15-15 15 6.729 15 15-6.729 15-15 15zm90 106c-8.271 0-15-6.729-15-15s6.729-15 15-15 15 6.729 15 15-6.729 15-15 15zm121 23c-8.271 0-15-6.729-15-15s6.729-15 15-15 15 6.729 15 15-6.729 15-15 15zm211 .533c-8.271 0-15-6.729-15-15s6.729-15 15-15c8.272 0 15 6.729 15 15s-6.729 15-15 15zm-273.872-389.188c0-34.667 28.204-62.871 62.872-62.871s62.872 28.204 62.872 62.871v32.637h-125.744zm19.188 246.929c-27.247-2.714-48.597-25.769-48.597-53.718v-130.574h184.562v130.573c0 27.949-21.35 51.004-48.598 53.718h-87.367z"/><path d="m256.03 213.003c-8.284 0-15 6.716-15 15v19.493c0 8.284 6.716 15 15 15s15-6.716 15-15v-19.493c0-8.284-6.716-15-15-15z"/></g></svg>